#!OML:ASF E:\emotionWalksFemale\Project 1\Capture day 1\Session 1\Female1.ASF
:FULLY-SPECIFIED
:DEGREES
1577
root 8.23167 15.2481 -33.8501 178.121 -11.6739 -180.258
lowerback 6.97537 -2.74905 0.0296164
upperback -5.22803 -3.74745 1.02339
thorax -9.39422 -1.8394 1.64036
lowerneck -3.33371 -5.76311 -5.10604
upperneck 12.725 -8.04501 1.18417
head 4.61774 -4.31842 0.761945
rclavicle -3.93097e-014 -7.15625e-015
rhumerus -47.6725 7.69507 -78.9432
rradius 52.9668
rwrist 11.4942
rhand -12.6082 -53.2344
rfingers 7.12502
rthumb 13.4708 -82.7787
lclavicle -3.93097e-014 -7.15625e-015
lhumerus -45.2183 6.92744 80.8482
lradius 36.4625
lwrist -13.1375
lhand -7.56047 -30.4975
lfingers 7.12502
lthumb 18.3317 -1.34125
rfemur -14.4621 17.973 18.7346
rtibia 33.8893
rfoot -16.3299 -12.1475
rtoes -25.3097
lfemur -0.950547 -11.5828 -29.5536
ltibia 27.3758
lfoot -28.2928 20.5849
ltoes -1.58894
1578
root 8.22988 15.2467 -33.8492 178.125 -11.5957 -180.217
lowerback 6.84566 -2.75871 0.00856093
upperback -5.06725 -3.74902 1.0938
thorax -9.13487 -1.83695 1.71101
lowerneck -3.48858 -5.7775 -5.04973
upperneck 12.6163 -8.03307 1.11851
head 4.60502 -4.30474 0.731066
rclavicle 7.40473e-015 -7.95139e-015
rhumerus -47.3698 7.7524 -78.8833
rradius 53.1027
rwrist 11.3545
rhand -12.5537 -53.352
rfingers 7.12502
rthumb 13.5233 -82.8928
lclavicle 7.40473e-015 -7.95139e-015
lhumerus -44.7783 6.99783 80.9646
lradius 36.2351
lwrist -12.9722
lhand -7.53599 -30.5758
lfingers 7.12502
lthumb 18.3553 -1.42177
rfemur -14.4679 18.0374 18.7759
rtibia 33.845
rfoot -16.2115 -12.1703
rtoes -25.5567
lfemur -0.939159 -11.5733 -29.5277
ltibia 27.34
lfoot -28.2664 20.6333
ltoes -1.57113
1579
root 8.22786 15.2442 -33.8502 178.105 -11.5196 -180.157
lowerback 6.86873 -2.76272 0.0981563
upperback -5.00883 -3.74006 1.10379
thorax -9.08994 -1.83705 1.66904
lowerneck -3.56961 -5.77475 -5.01389
upperneck 12.5942 -8.02335 1.13478
head 4.6106 -4.29435 0.728755
rclavicle 5.36222e-014 -1.82882e-014
rhumerus -47.3066 7.74476 -78.8908
rradius 53.2678
rwrist 11.3791
rhand -12.5887 -53.3417
rfingers 7.12502
rthumb 13.4896 -82.8849
lclavicle 5.36222e-014 -1.82882e-014
lhumerus -44.6063 6.99539 80.9887
lradius 36.1703
lwrist -12.7381
lhand -7.47289 -30.7018
lfingers 7.12502
lthumb 18.416 -1.55355
rfemur -14.4295 17.9986 18.8445
rtibia 33.763
rfoot -16.1094 -12.1118
rtoes -25.5023
lfemur -0.932249 -11.5961 -29.4898
ltibia 27.387
lfoot -28.408 20.6125
ltoes -0.75786
1580
root 8.22353 15.2426 -33.8548 178.1 -11.471 -180.258
lowerback 6.83773 -2.77568 0.0440995
upperback -4.95889 -3.7625 1.0709
thorax -9.01525 -1.8454 1.66315
lowerneck -3.59428 -5.80805 -5.05469
upperneck 12.6034 -8.07394 1.21143
head 4.62395 -4.31664 0.75436
rclavicle 4.38817e-014 5.56597e-015
rhumerus -47.2642 7.76655 -78.9097
rradius 53.3731
rwrist 11.4719
rhand -12.6179 -53.4255
rfingers 7.12502
rthumb 13.4615 -82.9705
lclavicle 4.38817e-014 5.56597e-015
lhumerus -44.5473 7.01896 81.0092
lradius 36.2744
lwrist -12.5409
lhand -7.34408 -30.6687
lfingers 7.12502
lthumb 18.5399 -1.53221
rfemur -14.3569 17.9283 18.7299
rtibia 33.7259
rfoot -16.1693 -12.0687
rtoes -25.4915
lfemur -0.837668 -11.6679 -29.6588
ltibia 27.3905
lfoot -28.639 20.5821
ltoes 0.398376
1581
root 8.22631 15.2439 -33.8556 178.084 -11.3411 -180.067
lowerback 6.87359 -2.77101 0.123148
upperback -4.94739 -3.74105 1.16254
thorax -9.02324 -1.83685 1.71476
lowerneck -3.45247 -5.82962 -5.1372
upperneck 12.476 -8.12436 1.40449
head 4.57396 -4.33396 0.830131
rclavicle -1.28216e-014 1.43125e-014
rhumerus -47.2582 7.81562 -78.9284
rradius 53.4812
rwrist 11.4592
rhand -12.6437 -53.4977
rfingers 7.12502
rthumb 13.4367 -83.0443
lclavicle -1.28216e-014 1.43125e-014
lhumerus -44.5565 6.95329 81.0905
lradius 36.4694
lwrist -12.2973
lhand -7.29068 -30.4552
lfingers 7.12502
lthumb 18.5912 -1.3236
rfemur -14.388 18.1442 18.9543
rtibia 33.6523
rfoot -16.0701 -12.1233
rtoes -25.4947
lfemur -0.900612 -11.6635 -29.4416
ltibia 27.4303
lfoot -28.7153 20.602
ltoes 0.350079
1582
root 8.2246 15.2428 -33.853 178.142 -11.3267 -180.056
lowerback 6.92825 -2.784 0.154325
upperback -4.95877 -3.75483 1.16438
thorax -9.06956 -1.84476 1.70531
lowerneck -3.30311 -5.80156 -5.15017
upperneck 12.3007 -8.10273 1.55762
head 4.50114 -4.31349 0.888347
rclavicle 4.32854e-014 2.0276e-014
rhumerus -47.3052 7.78249 -78.9424
rradius 53.6409
rwrist 11.4216
rhand -12.7294 -53.4708
rfingers 7.12502
rthumb 13.3541 -83.0229
lclavicle 4.32854e-014 2.0276e-014
lhumerus -44.5197 6.81046 81.1762
lradius 36.5285
lwrist -12.097
lhand -7.48264 -30.6406
lfingers 7.12502
lthumb 18.4066 -1.49145
rfemur -14.4337 18.1274 18.9332
rtibia 33.598
rfoot -16.0586 -12.043
rtoes -25.3536
lfemur -0.955786 -11.7122 -29.4477
ltibia 27.4326
lfoot -28.6784 20.7604
ltoes 0.144046
1583
root 8.22394 15.243 -33.8562 178.165 -11.2742 -179.861
lowerback 6.9491 -2.79051 0.326361
upperback -4.98824 -3.74357 1.22131
thorax -9.1218 -1.8488 1.67113
lowerneck -3.32278 -5.75231 -5.03553
upperneck 12.3515 -8.03714 1.46942
head 4.50935 -4.2826 0.845833
rclavicle 7.49418e-014 1.43125e-014
rhumerus -47.3805 7.735 -78.9521
rradius 53.7415
rwrist 11.5373
rhand -12.7359 -53.4874
rfingers 7.12502
rthumb 13.3478 -83.0399
lclavicle 7.49418e-014 1.43125e-014
lhumerus -44.5016 6.75943 81.1642
lradius 36.5492
lwrist -12.2619
lhand -7.47367 -30.9826
lfingers 7.12502
lthumb 18.4152 -1.83429
rfemur -14.4206 18.3885 19.1445
rtibia 33.4601
rfoot -15.9412 -12.3087
rtoes -25.2583
lfemur -1.03532 -11.7941 -29.2433
ltibia 27.5015
lfoot -28.7522 20.9315
ltoes 0.512951
1584
root 8.21683 15.2448 -33.8526 178.292 -11.2812 -179.843
lowerback 7.01683 -2.81929 0.446505
upperback -5.09609 -3.775 1.21984
thorax -9.28751 -1.87226 1.61711
lowerneck -3.37684 -5.7116 -4.87182
upperneck 12.5254 -7.98082 1.2541
head 4.55447 -4.26496 0.752913
rclavicle 4.45278e-014 -1.98785e-015
rhumerus -47.4761 7.75403 -78.9638
rradius 53.7121
rwrist 11.7747
rhand -12.9128 -53.2932
rfingers 7.12502
rthumb 13.1773 -82.8568
lclavicle 4.45278e-014 -1.98785e-015
lhumerus -44.6035 6.71385 81.1379
lradius 36.7717
lwrist -12.6444
lhand -6.98081 -30.7144
lfingers 7.12502
lthumb 18.8893 -1.61161
rfemur -14.4981 18.4934 19.0796
rtibia 33.361
rfoot -15.9609 -12.3793
rtoes -24.6776
lfemur -1.1794 -11.8833 -29.2448
ltibia 27.5038
lfoot -28.7208 21.0516
ltoes 0.0172538
1585
root 8.21692 15.248 -33.8533 178.296 -11.2008 -179.708
lowerback 7.20549 -2.81102 0.536965
upperback -5.19917 -3.75327 1.27252
thorax -9.51535 -1.86489 1.63662
lowerneck -3.24155 -5.71135 -4.82755
upperneck 12.5575 -7.99121 1.16248
head 4.53653 -4.2786 0.721395
rclavicle 6.14742e-014 9.54166e-015
rhumerus -47.6688 7.75483 -78.9543
rradius 53.7036
rwrist 12.126
rhand -13.0424 -52.8888
rfingers 7.12502
rthumb 13.0523 -82.4604
lclavicle 6.14742e-014 9.54166e-015
lhumerus -44.8061 6.51958 81.2037
lradius 37.0184
lwrist -12.6785
lhand -6.57663 -30.2669
lfingers 7.12502
lthumb 19.278 -1.20244
rfemur -14.4919 18.7652 19.2161
rtibia 33.2974
rfoot -15.9487 -12.4839
rtoes -23.9917
lfemur -1.20316 -11.9143 -29.1083
ltibia 27.4654
lfoot -28.7596 21.0679
ltoes -0.393141
